<?xml version="1.0" encoding="utf-8"?>
<!-- Generator: Adobe Illustrator 27.5.0, SVG Export Plug-In . SVG Version: 6.00 Build 0)  -->
<svg version="1.1" id="Layer_1" xmlns="http://www.w3.org/2000/svg" xmlns:xlink="http://www.w3.org/1999/xlink" x="0px" y="0px"
	 viewBox="0 0 297.743 147.333" style="enable-background:new 0 0 297.743 147.333;" xml:space="preserve">
<g>
	<g>
		<path style="fill:#222222;" d="M173.346,29.08l1.555-1.316c-0.438-0.519-10.818-12.685-20.592-14.34
			c-6.809-1.154-83.633-1.61-86.902-1.63h-0.004c-0.199,0-3.494,0.03-7.883,1.836c-4.061,1.668-9.873,5.246-14.531,12.813
			l1.738,1.07c8.33-13.537,20.518-13.677,20.672-13.677l0,0c0.795,0.005,79.926,0.472,86.568,1.599
			c3.701,0.626,8.211,3.166,13.043,7.348C170.719,25.988,173.318,29.049,173.346,29.08z"/>
		<g style="opacity:0.6;">
			<path style="fill:#B6B6B6;" d="M54.525,16.622c1.803-1.216,3.516-2.078,4.994-2.688c4.389-1.805,7.684-1.833,7.883-1.833h0.004
				c3.27,0.019,80.094,0.473,86.902,1.628c4.049,0.688,8.201,3.177,11.709,5.895c-0.254,0.006-0.51,0.016-0.766,0.031
				c-3.338-2.485-7.186-4.679-10.943-5.314c-6.809-1.154-83.633-1.609-86.902-1.63h-0.004c-0.199,0-3.494,0.029-7.883,1.835
				c-1.254,0.515-2.674,1.212-4.176,2.153C55.072,16.692,54.797,16.664,54.525,16.622z"/>
		</g>
	</g>
	<g>
		<g>
			<path d="M88.723,122.594c0,1.597,1.295,2.89,2.891,2.89h115.559c1.596,0,2.891-1.293,2.891-2.89v-5.192
				c0-1.596-1.295-2.891-2.891-2.891H91.613c-1.596,0-2.891,1.295-2.891,2.891V122.594z"/>
			<path style="fill:#515155;" d="M85.266,124.628c0,1.201,1.264,2.174,2.828,2.174h122.801c1.564,0,2.834-0.973,2.834-2.174l0,0
				c0-1.199-1.27-2.172-2.834-2.172H88.094C86.529,122.456,85.266,123.429,85.266,124.628L85.266,124.628z"/>
			<path style="opacity:0.4;fill:#C4C4C4;" d="M85.506,123.757c0.436-0.766,1.43-1.301,2.588-1.301h122.801
				c1.16,0,2.154,0.535,2.592,1.301H85.506z"/>
		</g>
		<path style="fill:#DE2019;" d="M14.174,58.875l202.828,5.569c0,0,35.787,5.476,67.777,21.253c2.557,2.197,2.867,4.168,3.266,6.635
			c0.131,0.812,0.234,1.63,0.338,2.449c0.879,3.983,2.803,12.78-0.813,16.67c-5.301,5.707-1.869,2.222-8.406,9.843
			c-0.207,0.239-0.555,0.233-0.834,0.34l-247.191-0.657l-21.621-6.926l-4.273-12.818l4.178-7.931L14.174,58.875z"/>
		<path style="fill:#C31D13;" d="M289.494,101.04c1.619,9.32-3.793,12.633-10.33,20.254c-0.207,0.239-0.555,0.233-0.834,0.34
			l-247.191-0.657l-21.621-6.926l-4.273-12.818l4.178-7.931C9.422,93.302,288.588,95.81,289.494,101.04z"/>
		<path style="fill:#C31D13;" d="M287.57,111.451c-5.301,5.707-1.869,2.222-8.406,9.843c-0.207,0.239-0.555,0.233-0.834,0.34
			l-247.191-0.657l-21.621-6.926l-2.225-6.68C7.293,107.371,288.559,110.392,287.57,111.451z"/>
		<path style="fill:#DE2019;" d="M31.445,35.393c14.291-14.621,14.662-18.509,26.766-18.56c9.143-0.039,11.238-0.826,20.389-0.79
			c12.527,0.048,25.064,0.017,37.586,0.483c12.434,0.464,24.902,0.946,37.295,2.099c8.899,0.827,16.666,2.241,17.367,2.474
			c14.498,4.834,55.76,52.4,55.76,52.4l-97.193-1.186L14.115,58.875C14.115,58.875,17.682,49.472,31.445,35.393z"/>
		<path d="M45.883,44.034c18.285-23.567,21.799-25.527,25.807-25.666c9.789-0.559,13.773-0.035,23.57-0.037
			c12.127-0.005,61.252,1.674,72.465,6.207c14.092,5.702,21.535,17.572,30.992,29.903c1.41,1.841,3.748,3.939,4.73,6.149
			c0,0,2.402,5.386-2.387,5.852c0,0-107.094-8.197-142.332-11.865c-5.486-0.571-10.611-6.062-12.492-8.488
			C45.936,45.451,45.801,44.746,45.883,44.034z"/>
		<path style="fill:#00384B;" d="M209.74,60.749c-10.613-13.83-28.277-29.191-31.947-32.318c-2.232-1.902-2.1-3.553-1.656-4.555
			c11.814,7.781,31.006,28.046,42.008,40.138l0,0C214.566,64.447,209.74,60.749,209.74,60.749z"/>
		<g>
			<path style="fill:#00384B;" d="M162.566,24.69c0,0,9.176,2.041,15.498,8.159c6.322,6.116,22.506,29.017,22.506,29.017
				s3.857,3.94-2.291,2.958c-2.598-0.414-27.23-2.639-54.801-5.067c-1.023-15.927-4.135-29.207-6.676-37.795
				C146.521,22.679,155.594,23.579,162.566,24.69z"/>
			<path style="fill:#00384B;" d="M131.234,21.571c1.156,9.372,2.404,23.017,2.24,37.306c-21.629-1.897-43.643-3.802-57.242-4.974
				c5.805-15.361,10.873-26.717,14.441-34.146C102.105,20.068,117.045,20.64,131.234,21.571z"/>
			<path style="fill:#00384B;" d="M48.783,43.146c0.816-2.141,16.723-23.449,22.939-23.653c1.656-0.056,6.971-0.016,14.381,0.152
				C79.857,31.243,74.031,42.62,68.916,53.272c-3.928-0.336-6.186-0.531-6.186-0.531s-3.752-0.113-6.607-1.948
				C53.271,48.958,47.967,45.288,48.783,43.146z"/>
		</g>
		<g>
			<g>
				<path style="fill:#ADAFB2;" d="M263.055,111.722c0-13.153-11.219-23.816-25.053-23.816c-13.836,0-25.055,10.663-25.055,23.816
					c0,3.537,0.814,6.893,2.268,9.912h-4.58c-1.797-3.865-2.805-8.172-2.805-12.717c0-16.663,13.508-30.172,30.172-30.172
					c16.66,0,30.17,13.509,30.17,30.172c0,4.545-1.006,8.852-2.807,12.717h-4.578C262.242,118.615,263.055,115.259,263.055,111.722z
					"/>
				<g>
					<path style="fill:#FFFFFF;" d="M207.83,108.917c0-16.663,13.508-30.172,30.172-30.172c16.66,0,30.17,13.509,30.17,30.172
						c0,4.545-1.006,8.852-2.807,12.717h-0.697c1.496-3.5,2.332-7.351,2.332-11.399c0-16.013-12.982-28.995-28.998-28.995
						s-28.998,12.983-28.998,28.995c0,4.049,0.834,7.899,2.332,11.399h-0.701C208.838,117.769,207.83,113.462,207.83,108.917z"/>
				</g>
				<path d="M238.002,87.905c13.834,0,25.053,10.663,25.053,23.816c0,3.537-0.813,6.893-2.268,9.912h-45.572
					c-1.453-3.019-2.268-6.375-2.268-9.912C212.947,98.568,224.166,87.905,238.002,87.905z"/>
			</g>
			<g>
				<path style="fill:#363635;" d="M216.701,114.234c0,11.767,9.537,21.304,21.301,21.304c11.764,0,21.301-9.537,21.301-21.304
					c0-11.763-9.537-21.302-21.301-21.302C226.238,92.933,216.701,102.472,216.701,114.234z"/>
				<path style="fill:#222222;" d="M216.701,114.234c0,11.767,9.537,21.304,21.301,21.304c11.764,0,21.301-9.537,21.301-21.304
					c0-11.763-9.537-21.302-21.301-21.302C226.238,92.933,216.701,102.472,216.701,114.234z"/>
				<path d="M223.547,114.234c0,7.983,6.471,14.454,14.455,14.454c7.98,0,14.453-6.471,14.453-14.454
					c0-7.981-6.473-14.452-14.453-14.452C230.018,99.782,223.547,106.253,223.547,114.234z"/>
				<path style="fill:#D5D3CB;" d="M224.805,114.234c0,7.29,5.908,13.196,13.197,13.196c7.287,0,13.193-5.906,13.193-13.196
					c0-7.287-5.906-13.194-13.193-13.194C230.713,101.04,224.805,106.947,224.805,114.234z"/>
				<g>
					<path style="fill:#4C4C49;" d="M231.385,106.374c-0.021-0.154-0.008-0.308,0.055-0.458c1.404-1.263,3.217-2.079,5.217-2.234
						c0.188,0.042,0.357,0.121,0.504,0.239c0.07,0.099,0.127,0.204,0.178,0.318v7.338c-0.039,0.1-0.086,0.19-0.146,0.281
						c-0.039,0.021-0.082,0.043-0.125,0.063c-0.121-0.012-0.238-0.035-0.352-0.073l-5.264-5.268
						C231.424,106.513,231.402,106.444,231.385,106.374z"/>
					<path style="fill:#4C4C49;" d="M227.525,113.621c-0.125-0.095-0.223-0.214-0.283-0.362c0.098-1.888,0.801-3.746,2.107-5.268
						c0.162-0.104,0.34-0.169,0.527-0.19c0.117,0.022,0.232,0.058,0.348,0.104l5.189,5.188c0.041,0.096,0.074,0.195,0.096,0.298
						c-0.014,0.045-0.029,0.093-0.045,0.138c-0.092,0.076-0.193,0.143-0.299,0.193h-7.447
						C227.65,113.694,227.588,113.661,227.525,113.621z"/>
					<path style="fill:#4C4C49;" d="M230.045,121.242c-0.156,0.022-0.311,0.012-0.461-0.05c-1.287-1.381-2.135-3.178-2.324-5.175
						c0.037-0.188,0.113-0.36,0.23-0.51c0.098-0.069,0.203-0.131,0.316-0.183l7.336-0.127c0.1,0.037,0.191,0.084,0.283,0.14
						c0.021,0.042,0.045,0.085,0.063,0.128c-0.006,0.119-0.029,0.238-0.066,0.35l-5.172,5.357
						C230.182,121.201,230.113,121.225,230.045,121.242z"/>
					<path style="fill:#4C4C49;" d="M237.16,124.51c-0.096,0.124-0.215,0.222-0.365,0.278c-1.885-0.125-3.734-0.856-5.236-2.182
						c-0.102-0.163-0.166-0.342-0.182-0.532c0.023-0.114,0.057-0.231,0.105-0.346l5.264-5.116c0.096-0.038,0.197-0.069,0.299-0.089
						c0.047,0.014,0.09,0.03,0.137,0.048c0.074,0.092,0.137,0.192,0.189,0.302l-0.104,7.446
						C237.234,124.386,237.201,124.449,237.16,124.51z"/>
					<path style="fill:#4C4C49;" d="M244.617,106.374c0.021-0.154,0.006-0.308-0.055-0.458c-1.406-1.263-3.219-2.079-5.219-2.234
						c-0.186,0.042-0.357,0.121-0.506,0.239c-0.067,0.099-0.123,0.204-0.174,0.318v7.338c0.037,0.1,0.086,0.19,0.145,0.281
						c0.041,0.021,0.086,0.043,0.129,0.063c0.117-0.012,0.234-0.035,0.352-0.073l5.262-5.268
						C244.578,106.513,244.602,106.444,244.617,106.374z"/>
					<path style="fill:#4C4C49;" d="M248.475,113.621c0.125-0.095,0.225-0.214,0.285-0.362c-0.1-1.888-0.803-3.746-2.111-5.268
						c-0.158-0.104-0.334-0.169-0.521-0.19c-0.121,0.022-0.234,0.058-0.354,0.104l-5.188,5.188c-0.041,0.096-0.07,0.195-0.094,0.298
						c0.012,0.045,0.027,0.093,0.045,0.138c0.092,0.076,0.193,0.143,0.299,0.193h7.447
						C248.35,113.694,248.416,113.661,248.475,113.621z"/>
					<path style="fill:#4C4C49;" d="M245.957,121.242c0.156,0.022,0.311,0.012,0.461-0.05c1.287-1.381,2.135-3.178,2.322-5.175
						c-0.037-0.188-0.113-0.36-0.23-0.51c-0.096-0.069-0.203-0.131-0.316-0.183l-7.334-0.127c-0.1,0.037-0.191,0.084-0.285,0.14
						c-0.021,0.042-0.041,0.085-0.063,0.128c0.008,0.119,0.031,0.238,0.066,0.35l5.176,5.357
						C245.82,121.201,245.889,121.225,245.957,121.242z"/>
					<path style="fill:#4C4C49;" d="M238.838,124.51c0.1,0.124,0.217,0.222,0.367,0.278c1.887-0.125,3.738-0.856,5.238-2.182
						c0.104-0.163,0.164-0.342,0.184-0.532c-0.025-0.114-0.059-0.231-0.107-0.346l-5.264-5.116
						c-0.096-0.038-0.197-0.069-0.299-0.089c-0.047,0.014-0.09,0.03-0.137,0.048c-0.076,0.092-0.137,0.192-0.189,0.302l0.105,7.446
						C238.766,124.386,238.799,124.449,238.838,124.51z"/>
					<polygon style="fill:#4C4C49;" points="237.982,114.354 237.982,114.354 237.982,114.354 					"/>
					<polygon style="fill:#4C4C49;" points="237.982,114.354 237.982,114.354 237.982,114.354 					"/>
				</g>
				<path style="fill:#D5D3CB;" d="M234.125,114.234c0,2.142,1.734,3.878,3.877,3.878c2.139,0,3.875-1.736,3.875-3.878
					c0-2.14-1.736-3.874-3.875-3.874C235.859,110.36,234.125,112.095,234.125,114.234z"/>
				<path style="fill:#4C4C49;" d="M235.488,112.33c0,0.266,0.219,0.481,0.484,0.481c0.27,0,0.484-0.216,0.484-0.481
					c0-0.268-0.215-0.482-0.484-0.482C235.707,111.848,235.488,112.063,235.488,112.33z"/>
				<path style="fill:#4C4C49;" d="M237.502,111.641c0,0.267,0.215,0.481,0.48,0.481c0.266,0,0.48-0.215,0.48-0.481
					c0-0.268-0.215-0.481-0.48-0.481C237.717,111.159,237.502,111.373,237.502,111.641z"/>
				<path style="fill:#4C4C49;" d="M239.545,112.405c0,0.265,0.217,0.479,0.482,0.479c0.268,0,0.484-0.215,0.484-0.479
					c0-0.268-0.217-0.484-0.484-0.484C239.762,111.921,239.545,112.138,239.545,112.405z"/>
				<path style="fill:#4C4C49;" d="M235.488,116.549c0-0.267,0.219-0.484,0.484-0.484c0.27,0,0.484,0.218,0.484,0.484
					c0,0.266-0.215,0.481-0.484,0.481C235.707,117.03,235.488,116.814,235.488,116.549z"/>
				<path style="fill:#4C4C49;" d="M234.543,114.534c0-0.268,0.219-0.483,0.486-0.483c0.266,0,0.48,0.216,0.48,0.483
					c0,0.266-0.215,0.48-0.48,0.48C234.762,115.015,234.543,114.8,234.543,114.534z"/>
				<path style="fill:#4C4C49;" d="M240.492,114.534c0-0.268,0.215-0.483,0.48-0.483c0.268,0,0.484,0.216,0.484,0.483
					c0,0.266-0.217,0.48-0.484,0.48C240.707,115.015,240.492,114.8,240.492,114.534z"/>
				<path style="fill:#4C4C49;" d="M237.502,117.237c0-0.268,0.215-0.48,0.48-0.48c0.266,0,0.48,0.213,0.48,0.48
					c0,0.267-0.215,0.482-0.48,0.482C237.717,117.72,237.502,117.504,237.502,117.237z"/>
				<path style="fill:#4C4C49;" d="M239.545,116.474c0-0.266,0.217-0.481,0.482-0.481c0.268,0,0.484,0.216,0.484,0.481
					c0,0.268-0.217,0.482-0.484,0.482C239.762,116.956,239.545,116.741,239.545,116.474z"/>
			</g>
		</g>
		<g>
			<path style="fill:#201E1E;" d="M263.871,110.597c-0.117-1.483-0.244-2.967-0.338-4.451h27.279
				c0.309,0.037,0.607,0.092,0.85,0.219c0.453,0.238,0.664,0.578,0.834,0.941l-0.113,5.941c0,0-5.639,8.459-9.518,9.702
				c-3.877,1.244-6.453,0.888-6.453,0.888l-11.256,0.049C265.141,123.2,264.021,112.568,263.871,110.597z"/>
			<path style="opacity:0.6;fill:#222222;" d="M270.008,106.146h20.805c0.309,0.037,0.607,0.092,0.85,0.219
				c0.453,0.238,0.664,0.578,0.834,0.941l-0.1,5.252C292.396,112.558,270.102,107.63,270.008,106.146z"/>
		</g>
		<g>
			<path d="M206.24,61.153l5.393,3.59c0,0,2.457,1.732,0.668,3.592c0,0-0.842,0.978-3.107,1.028
				c-2.262,0.051-6.961-1.028-6.961-1.028L206.24,61.153z"/>
			<g>
				<path style="fill:#222222;" d="M196.797,59.721c1.094-3.05,6.662-2.621,6.67-2.621c2.385,0.175,4.188,2.587,5.539,5.15
					c1.561,2.955,0.398,8.995-2.531,8.433c-3.359-0.644-2.078-0.165-7.514-1.76C197.539,68.508,195.463,63.437,196.797,59.721z"/>
			</g>
			<g>
				<path style="fill:#141412;" d="M196.797,59.721c0.098-0.278,0.236-0.528,0.406-0.751c-0.059,1.43,0.256,2.854,1.246,3.965
					c1.234,1.386,3.037,2.108,4.793,2.596c1.053,0.293,2.09,0.662,3.164,0.875c0.859,0.174,2.021,0.401,2.824-0.091
					c0.176-0.112,0.33-0.238,0.459-0.378c-0.111,2.602-1.273,5.121-3.215,4.746c-3.359-0.644-2.078-0.165-7.514-1.76
					C197.539,68.508,195.463,63.437,196.797,59.721z"/>
			</g>
		</g>
		<polygon style="fill:#DE2019;" points="227.26,76.739 18.201,51.515 14.115,58.593 13.83,61.372 20.238,67.354 		"/>
		<g>
			<path style="fill:#404744;" d="M152.35,68.084l-6.814-0.704c0,0-1.348-0.102-0.924,1.108c0.422,1.209,0.553,1.433,0.553,1.433
				s0.098,0.617,1.396,0.954c1.297,0.337,9.154,1.489,9.154,1.489s1.104,0.229,2.904-0.468c1.801-0.698,1.863-2.196,1.316-2.609
				c0,0,0.027-0.157-1.082-0.45C157.742,68.547,152.35,68.084,152.35,68.084z"/>
			<path style="fill:#B6B6B6;" d="M158.1,68.978l-11.459-1.27c0,0-1.271-0.134-1.514,0.415c-0.244,0.548,0.377,1.144,2.113,1.432
				c1.734,0.29,8.379,1.254,8.379,1.254s2.486,0.383,3.377-0.226C159.889,69.974,159.537,69.198,158.1,68.978z"/>
		</g>
		<g>
			<path style="fill:#404744;" d="M80.527,60.172l-6.814-0.703c0,0-1.342-0.102-0.92,1.106c0.422,1.211,0.553,1.434,0.553,1.434
				s0.096,0.616,1.394,0.953c1.297,0.337,9.158,1.489,9.158,1.489s1.102,0.229,2.902-0.466c1.799-0.697,1.865-2.197,1.313-2.609
				c0,0,0.029-0.158-1.082-0.451C85.922,60.637,80.527,60.172,80.527,60.172z"/>
			<path style="fill:#B6B6B6;" d="M86.281,61.067L74.82,59.796c0,0-1.271-0.133-1.514,0.414c-0.242,0.548,0.377,1.143,2.115,1.434
				c1.734,0.29,8.377,1.254,8.377,1.254s2.486,0.381,3.379-0.227C88.068,62.062,87.717,61.285,86.281,61.067z"/>
		</g>
		<path style="fill:#00384B;" d="M46.621,19.89c3.369,0.086,5.816,0.943,4.404,3.617l-25.896,29.7c0,0-4.672,6.646-9.293,2.195
			c2.199-3.95,6.828-11.028,15.609-20.01C39.275,27.379,42.928,22.591,46.621,19.89z"/>
		<g>
			<g>
				<path style="fill:#D5D3CB;" d="M269.549,82.149c3.018-0.159,5.701-0.23,8.494,1.074c2.637,1.235,6.533,2.75,7.877,4.152
					c0.473,0.608,0.865,1.294,1.188,2.02c0.631,2.163,0.988,4.426,1.064,6.684c-0.082,0.695-0.242,1.299-0.465,1.754
					c-0.815,1.668-9.727,0.352-15.707-4.531C270.096,92.187,266.506,82.346,269.549,82.149z"/>
			</g>
			<path style="opacity:0.6;fill:#E3EDEE;" d="M272.162,89.645c0.426,3.027,2.316,5.265,4.217,4.997
				c1.902-0.271,3.096-2.943,2.668-5.971c-0.428-3.027-2.318-5.262-4.219-4.994C272.928,83.944,271.732,86.618,272.162,89.645z"/>
			<path style="fill:#E3D8C3;" d="M281.285,93.375c0.065,1.846,1.057,3.312,2.217,3.272c1.16-0.041,2.047-1.57,1.986-3.417
				c-0.068-1.847-1.057-3.311-2.219-3.272C282.109,89.998,281.223,91.528,281.285,93.375z"/>
			<g style="opacity:0.4;">
				<path style="fill:#FFFFFF;" d="M270.096,82.122c2.797-0.136,5.324-0.124,7.947,1.102c2.637,1.235,6.533,2.75,7.877,4.152
					c0.473,0.608,0.865,1.294,1.188,2.02c0.631,2.163,0.988,4.426,1.064,6.684c-0.063,0.521-0.168,0.993-0.311,1.39
					C283.709,90.546,277.781,84.598,270.096,82.122z"/>
			</g>
		</g>
		<g>
			<path style="fill:#222222;" d="M274.892,112.493c-2.754-0.219-4.83,1.729-4.633,4.349c0.193,2.618,2.588,4.918,5.344,5.137
				c2.756,0.216,9-1.401,8.805-4.021C284.213,115.339,277.648,112.711,274.892,112.493z"/>
			<path d="M275.453,113.072c-2.598-0.206-4.557,1.63-4.369,4.102c0.184,2.472,2.44,4.639,5.039,4.845
				c2.6,0.205,8.492-1.319,8.305-3.791C284.244,115.757,278.053,113.277,275.453,113.072z"/>
		</g>
		<path style="opacity:0.5;fill:#00384B;" d="M205.426,55.466C194.891,43.235,181,31.163,177.793,28.431
			c-2.232-1.902-2.1-3.553-1.656-4.555c10.174,6.701,25.822,22.661,36.994,34.685C210.578,57.488,208.012,56.458,205.426,55.466z"/>
		<g style="opacity:0.5;">
			<path style="fill:#00384B;" d="M162.559,42.673c-7.223-1.613-14.49-3.039-21.797-4.289c-1.234-6.503-2.67-12.068-3.959-16.422
				c9.719,0.717,18.791,1.617,25.764,2.728c0,0,9.176,2.041,15.498,8.159c3.367,3.255,9.531,11.275,14.559,18.06
				C182.754,47.661,172.703,44.938,162.559,42.673z"/>
			<path style="fill:#00384B;" d="M85.047,32.104c2.131-4.906,4.027-9.021,5.627-12.347c11.432,0.311,26.371,0.882,40.561,1.814
				c0.535,4.365,1.096,9.658,1.52,15.512C116.951,34.656,101.006,33.03,85.047,32.104z"/>
			<path style="fill:#00384B;" d="M66.568,31.339c-2.949-0.075-5.9-0.125-8.853-0.15c4.975-5.83,10.791-11.591,14.008-11.695
				c1.656-0.056,6.971-0.016,14.381,0.152c-2.203,4.094-4.354,8.157-6.441,12.175C75.297,31.609,70.93,31.449,66.568,31.339z"/>
		</g>
		<path style="opacity:0.5;fill:#00384B;" d="M44.279,31.241c-3.029,0.055-6.059,0.131-9.09,0.237
			c5.365-5.709,8.387-9.36,11.432-11.589c3.369,0.086,5.816,0.943,4.404,3.617L44.279,31.241z"/>
		<g>
			<g>
				<g>
					<path style="fill:#ADAFB2;" d="M85.273,111.722c0-13.153-11.217-23.816-25.053-23.816c-13.834,0-25.051,10.663-25.051,23.816
						c0,3.537,0.813,6.893,2.268,9.912h-4.582c-1.797-3.865-2.805-8.172-2.805-12.717c0-16.663,13.508-30.172,30.17-30.172
						s30.172,13.509,30.172,30.172c0,4.545-1.008,8.852-2.807,12.717h-4.58C84.461,118.615,85.273,115.259,85.273,111.722z"/>
					<path d="M60.221,87.905c13.836,0,25.053,10.663,25.053,23.816c0,3.537-0.813,6.893-2.268,9.912H37.438
						c-1.455-3.019-2.268-6.375-2.268-9.912C35.17,98.568,46.387,87.905,60.221,87.905z"/>
				</g>
				<g>
					<path style="fill:#363635;" d="M38.92,114.234c0,11.767,9.535,21.304,21.301,21.304c11.764,0,21.303-9.537,21.303-21.304
						c0-11.763-9.539-21.302-21.303-21.302C48.455,92.933,38.92,102.472,38.92,114.234z"/>
					<path style="fill:#222222;" d="M38.92,114.234c0,11.767,9.535,21.304,21.301,21.304c11.764,0,21.303-9.537,21.303-21.304
						c0-11.763-9.539-21.302-21.303-21.302C48.455,92.933,38.92,102.472,38.92,114.234z"/>
					<path d="M45.768,114.234c0,7.983,6.473,14.454,14.453,14.454c7.982,0,14.453-6.471,14.453-14.454
						c0-7.981-6.471-14.452-14.453-14.452C52.24,99.782,45.768,106.253,45.768,114.234z"/>
					<path style="fill:#D5D3CB;" d="M47.025,114.234c0,7.29,5.908,13.196,13.195,13.196s13.195-5.906,13.195-13.196
						c0-7.287-5.908-13.194-13.195-13.194S47.025,106.947,47.025,114.234z"/>
					<g>
						<path style="fill:#4C4C49;" d="M53.604,106.374c-0.018-0.154-0.006-0.308,0.057-0.458c1.406-1.263,3.217-2.079,5.215-2.234
							c0.189,0.042,0.361,0.121,0.508,0.239c0.068,0.099,0.125,0.204,0.178,0.318v7.338c-0.039,0.1-0.09,0.19-0.146,0.281
							c-0.043,0.021-0.086,0.043-0.127,0.063c-0.121-0.012-0.238-0.035-0.354-0.073l-5.264-5.268
							C53.643,106.513,53.621,106.444,53.604,106.374z"/>
						<path style="fill:#4C4C49;" d="M49.746,113.621c-0.125-0.095-0.225-0.214-0.283-0.362c0.1-1.888,0.803-3.746,2.107-5.268
							c0.162-0.104,0.338-0.169,0.527-0.19c0.117,0.022,0.232,0.058,0.35,0.104l5.188,5.188c0.043,0.096,0.072,0.195,0.096,0.298
							c-0.016,0.045-0.029,0.093-0.045,0.138c-0.092,0.076-0.193,0.143-0.303,0.193h-7.443
							C49.871,113.694,49.807,113.661,49.746,113.621z"/>
						<path style="fill:#4C4C49;" d="M52.266,121.242c-0.156,0.022-0.311,0.012-0.461-0.05c-1.287-1.381-2.135-3.178-2.322-5.175
							c0.037-0.188,0.111-0.36,0.229-0.51c0.098-0.069,0.203-0.131,0.316-0.183l7.336-0.127c0.098,0.037,0.193,0.084,0.281,0.14
							c0.023,0.042,0.043,0.085,0.066,0.128c-0.008,0.119-0.031,0.238-0.066,0.35l-5.176,5.357
							C52.4,121.201,52.332,121.225,52.266,121.242z"/>
						<path style="fill:#4C4C49;" d="M59.383,124.51c-0.096,0.124-0.217,0.222-0.365,0.278c-1.889-0.125-3.736-0.856-5.24-2.182
							c-0.1-0.163-0.162-0.342-0.182-0.532c0.025-0.114,0.061-0.231,0.109-0.346l5.26-5.116c0.098-0.038,0.199-0.069,0.301-0.089
							c0.047,0.014,0.088,0.03,0.135,0.048c0.076,0.092,0.139,0.192,0.189,0.302l-0.106,7.446
							C59.457,124.386,59.422,124.449,59.383,124.51z"/>
						<path style="fill:#4C4C49;" d="M66.838,106.374c0.021-0.154,0.008-0.308-0.055-0.458c-1.406-1.263-3.219-2.079-5.217-2.234
							c-0.188,0.042-0.359,0.121-0.506,0.239c-0.068,0.099-0.127,0.204-0.178,0.318v7.338c0.041,0.1,0.088,0.19,0.143,0.281
							c0.043,0.021,0.088,0.043,0.131,0.063c0.121-0.012,0.236-0.035,0.352-0.073l5.262-5.268
							C66.799,106.513,66.82,106.444,66.838,106.374z"/>
						<path style="fill:#4C4C49;" d="M70.697,113.621c0.123-0.095,0.225-0.214,0.283-0.362c-0.098-1.888-0.803-3.746-2.109-5.268
							c-0.16-0.104-0.336-0.169-0.525-0.19c-0.117,0.022-0.234,0.058-0.35,0.104l-5.19,5.188c-0.041,0.096-0.072,0.195-0.096,0.298
							c0.014,0.045,0.029,0.093,0.045,0.138c0.094,0.076,0.193,0.143,0.303,0.193h7.445
							C70.572,113.694,70.637,113.661,70.697,113.621z"/>
						<path style="fill:#4C4C49;" d="M68.178,121.242c0.154,0.022,0.311,0.012,0.461-0.05c1.285-1.381,2.135-3.178,2.32-5.175
							c-0.035-0.188-0.111-0.36-0.229-0.51c-0.098-0.069-0.203-0.131-0.314-0.183l-7.338-0.127c-0.1,0.037-0.191,0.084-0.281,0.14
							c-0.023,0.042-0.045,0.085-0.064,0.128c0.008,0.119,0.029,0.238,0.066,0.35l5.172,5.357
							C68.041,121.201,68.111,121.225,68.178,121.242z"/>
						<path style="fill:#4C4C49;" d="M61.061,124.51c0.096,0.124,0.217,0.222,0.367,0.278c1.887-0.125,3.734-0.856,5.234-2.182
							c0.104-0.163,0.168-0.342,0.184-0.532c-0.024-0.114-0.061-0.231-0.108-0.346l-5.258-5.116
							c-0.102-0.038-0.203-0.069-0.305-0.089c-0.045,0.014-0.088,0.03-0.133,0.048c-0.076,0.092-0.141,0.192-0.191,0.302
							l0.105,7.446C60.988,124.386,61.021,124.449,61.061,124.51z"/>
						<polygon style="fill:#4C4C49;" points="60.203,114.354 60.203,114.354 60.203,114.354 						"/>
						<polygon style="fill:#4C4C49;" points="60.203,114.354 60.203,114.354 60.203,114.354 						"/>
					</g>
					<path style="fill:#D5D3CB;" d="M56.346,114.234c0,2.142,1.734,3.878,3.875,3.878c2.141,0,3.875-1.736,3.875-3.878
						c0-2.14-1.734-3.874-3.875-3.874C58.08,110.36,56.346,112.095,56.346,114.234z"/>
					<path style="fill:#4C4C49;" d="M57.711,112.33c0,0.266,0.215,0.481,0.48,0.481c0.27,0,0.484-0.216,0.484-0.481
						c0-0.268-0.215-0.482-0.484-0.482C57.926,111.848,57.711,112.063,57.711,112.33z"/>
					<path style="fill:#4C4C49;" d="M59.721,111.641c0,0.267,0.215,0.481,0.482,0.481c0.264,0,0.484-0.215,0.484-0.481
						c0-0.268-0.221-0.481-0.484-0.481C59.936,111.159,59.721,111.373,59.721,111.641z"/>
					<path style="fill:#4C4C49;" d="M61.766,112.405c0,0.265,0.217,0.479,0.482,0.479c0.268,0,0.484-0.215,0.484-0.479
						c0-0.268-0.217-0.484-0.484-0.484C61.982,111.921,61.766,112.138,61.766,112.405z"/>
					<path style="fill:#4C4C49;" d="M57.711,116.549c0-0.267,0.215-0.484,0.48-0.484c0.27,0,0.484,0.218,0.484,0.484
						c0,0.266-0.215,0.481-0.484,0.481C57.926,117.03,57.711,116.814,57.711,116.549z"/>
					<path style="fill:#4C4C49;" d="M56.766,114.534c0-0.268,0.217-0.483,0.482-0.483c0.268,0,0.482,0.216,0.482,0.483
						c0,0.266-0.215,0.48-0.482,0.48C56.982,115.015,56.766,114.8,56.766,114.534z"/>
					<path style="fill:#4C4C49;" d="M62.711,114.534c0-0.268,0.217-0.483,0.484-0.483c0.264,0,0.479,0.216,0.479,0.483
						c0,0.266-0.215,0.48-0.479,0.48C62.928,115.015,62.711,114.8,62.711,114.534z"/>
					<path style="fill:#4C4C49;" d="M59.721,117.237c0-0.268,0.215-0.48,0.482-0.48c0.264,0,0.484,0.213,0.484,0.48
						c0,0.267-0.221,0.482-0.484,0.482C59.936,117.72,59.721,117.504,59.721,117.237z"/>
					<path style="fill:#4C4C49;" d="M61.766,116.474c0-0.266,0.217-0.481,0.482-0.481c0.268,0,0.484,0.216,0.484,0.481
						c0,0.268-0.217,0.482-0.484,0.482C61.982,116.956,61.766,116.741,61.766,116.474z"/>
				</g>
			</g>
			<g>
				<path style="fill:#FFFFFF;" d="M30.051,108.917c0-16.663,13.508-30.172,30.17-30.172s30.172,13.509,30.172,30.172
					c0,4.545-1.008,8.852-2.807,12.717h-0.697c1.496-3.5,2.328-7.351,2.328-11.399c0-16.013-12.98-28.995-28.996-28.995
					c-16.014,0-28.996,12.983-28.996,28.995c0,4.049,0.834,7.899,2.328,11.399h-0.697C31.059,117.769,30.051,113.462,30.051,108.917
					z"/>
			</g>
		</g>
		<path style="fill:#DE2019;" d="M50.551,25.304c0,0,3.738-4.078-1.357-5.414c-2.904-0.76-4.318,0.412-8.156,1.88l-2.109,0.95
			c-1.088,0.476,9.143,5.337,9.143,5.337L50.551,25.304z"/>
		<g>
			<path style="fill:#C31D13;" d="M38.928,22.72l2.109-0.95c3.408-1.302,4.904-2.373,7.232-2.062
				c-1.484,0.332-2.961,1.252-5.398,2.303l-2.143,1.097c-0.686,0.338,3.021,2.601,5.963,4.282
				C43.938,26.041,38.092,23.088,38.928,22.72z"/>
		</g>
	</g>
	<g>
		<path style="fill:#5D1707;" d="M15.334,96.728l-5.203-0.307c0,0-1.426-0.104-1.938,0.817l-1.729,3.516c0,0-0.156,0.56,0.711,0.56
			c0.865,0,5.148,0,5.148,0s0.813,0.052,1.428-0.405c0.611-0.46,2.344-3.569,2.344-3.569S16.385,96.698,15.334,96.728z"/>
		<path style="fill:#E3301F;" d="M12.892,97.409l-3.539-0.208c0,0-0.973-0.068-1.318,0.556l-1.182,2.396
			c0,0-0.105,0.382,0.482,0.382c0.592,0,3.508,0,3.508,0s0.557,0.034,0.973-0.279c0.416-0.313,1.596-2.429,1.596-2.429
			S13.545,97.311,12.892,97.409z"/>
		<g>
			<path style="fill:#DC4E14;" d="M19.051,63.638c1.166,0.719,2.295,1.812,2.902,3.143c0.627,1.368,0.699,2.91,0.56,4.413
				c-0.115,1.271-0.332,2.536-0.517,3.794c-0.189,1.283-0.391,2.563-0.633,3.833c-0.221,1.155-0.453,2.318-0.822,3.43
				c-0.244,0.729-0.527,1.467-1.1,1.962c-0.717,0.625-1.619,0.991-2.455,1.376c-1.078,0.495-2.17,0.953-3.273,1.381
				c-1.006,0.392-3.52,1.749-3.52,1.116l3.352-26.805l0.703-0.658c0.086,0.044,0.16,0.085,0.227,0.12
				c0.535,0.274,1.051,0.587,1.561,0.913C17.047,62.304,18.025,63.01,19.051,63.638z"/>
			<g>
				<path style="fill:#DC4E14;" d="M22.203,73.62c-0.068,0.458-0.141,0.913-0.207,1.367c-0.189,1.283-0.391,2.563-0.633,3.833
					c-0.221,1.155-0.453,2.318-0.822,3.43c-0.244,0.729-0.527,1.467-1.1,1.962c-0.717,0.625-1.619,0.991-2.455,1.376
					c-1.078,0.495-2.17,0.953-3.273,1.381c-1.006,0.392-3.52,1.749-3.52,1.116l1.811-14.465H22.203z"/>
			</g>
		</g>
		<path style="fill:#E3301F;" d="M14.379,61.372c0,0,7.152,3.559,7.291,7.095c0.135,3.534-2.244,14.206-2.244,14.206
			s-0.148,1.018-1.4,1.562l2.219-12.184c0,0,1.018-4.401-1.43-6.44C16.367,63.571,14.379,61.372,14.379,61.372z"/>
	</g>
	<g>
		<path style="fill:#E86408;" d="M226.035,76.441l-8.768-0.397c0,0,0.131,0.952,1.033,1.768c0.9,0.816,5.193,0.612,5.193,0.612
			s1.932,0.102,2.541-0.511C226.645,77.302,226.748,76.475,226.035,76.441z"/>
		<path style="opacity:0.5;fill:#E86408;" d="M225.859,76.81l-5.83-0.265c0,0,0.084,0.636,0.686,1.177
			c0.6,0.542,3.453,0.407,3.453,0.407s1.285,0.068,1.691-0.339C226.264,77.382,226.33,76.832,225.859,76.81z"/>
	</g>
</g>
</svg>
